# xmcd
#
# Track frame offsets:
#	150
#	22724
#	41997
#	72088
#	92781
#	115947
#	135571
#	151319
#	166654
#	182677
#	214714
#	234080
#	251175
#	268304
#	282993
#	304875
#	328883
#
# Disc length: 4680 seconds
#
# Revision: 1
# Processed by: cddbd v1.5.1PL2 Copyright (c) Steve Scherf et al.
# Submitted via: dBpowerAMP V4.0
#
DISCID=ef124611
DTITLE=Martinez - audiomatique rec. vol. 1
DYEAR=2006
DGENRE=_electronique_
TTITLE0=Trentemoeller - Prana
TTITLE1=Adultnapper - Choose
TTITLE2=Rob Acid - Lidia
TTITLE3=Mark and John - Trap2
TTITLE4=Trentemoeller - Physical Fraction (Martinez Edit)
TTITLE5=Factor-X - Projections
TTITLE6=Robert Babicz - Prism (Prism Agga Knakk Nachwörkk)
TTITLE7=Robert Babicz - Prism
TTITLE8=Jussi Pekka - Let It Go (Don't Worry)
TTITLE9=Martinez - Twilight
TTITLE10=Alexi Delano and Fernando Gullon - When It Rains In Madrid
TTITLE11=Huggotron - Flashlight
TTITLE12=Trentemoeller - Rykketid
TTITLE13=CDJJJ - Playmate
TTITLE14=Martinez - Shadowboxing (Trentemoeller Remix)
TTITLE15=Martinez - Shadowboxing
TTITLE16=Mark and John - The Most Dangerous Animal In The Zoo
EXTD=AMCD01 (c)2006 audiomatique rec.
EXTT0=
EXTT1=
EXTT2=
EXTT3=
EXTT4=
EXTT5=
EXTT6=
EXTT7=
EXTT8=
EXTT9=
EXTT10=
EXTT11=
EXTT12=
EXTT13=
EXTT14=
EXTT15=
EXTT16=
PLAYORDER=
